<?xml version="1.0" encoding="utf-8"?>
<!-- Generator: Adobe Illustrator 22.1.0, SVG Export Plug-In . SVG Version: 6.00 Build 0)  -->
<svg version="1.1" id="Layer_1" xmlns="http://www.w3.org/2000/svg" xmlns:xlink="http://www.w3.org/1999/xlink" x="0px" y="0px"
	 viewBox="0 0 373.7 109.2" style="enable-background:new 0 0 373.7 109.2;" xml:space="preserve">
<style type="text/css">
	.st0{fill:url(#SVGID_1_);}
	.st1{fill:url(#SVGID_2_);}
	.st2{fill:#091938;}
</style>
<g>
	<linearGradient id="SVGID_1_" gradientUnits="userSpaceOnUse" x1="48.0715" y1="48.8852" x2="74.5196" y2="48.8852">
		<stop  offset="0" style="stop-color:#284398"/>
		<stop  offset="1" style="stop-color:#62C8D7"/>
	</linearGradient>
	<path class="st0" d="M60.4,51.5c0.6,0.3,1.7,1.2,1.5,3.2c-0.1,1.3-0.2,2.5-0.4,3.5c-0.2,1.7-0.5,3.9-0.2,4.5c0.3,0,1.2-0.1,4.1-1.7
		c3.9-2.2,6.9-3.9,9-5L62.9,36c-0.8-1.4-2.9-1.4-3.7,0L48.1,55.3C52.9,52.5,58,50.2,60.4,51.5z"/>
	<linearGradient id="SVGID_2_" gradientUnits="userSpaceOnUse" x1="40.209" y1="62.7998" x2="81.8997" y2="62.7998">
		<stop  offset="0" style="stop-color:#284398"/>
		<stop  offset="1" style="stop-color:#62C8D7"/>
	</linearGradient>
	<path class="st1" d="M81.6,68.4L76,58.7c-2.2,1.2-5.2,2.8-9.1,5.1c-2.4,1.4-4.2,2.1-5.5,2.1c-0.7,0-1.2-0.2-1.7-0.5
		c-1.8-1.2-1.5-3.8-1.1-7.4c0.1-1.1,0.3-2.2,0.3-3.4c0-0.4,0-0.5,0-0.5c-1.2-0.7-7.4,2.3-14.1,6.8l-4.4,7.5
		c-0.8,1.4,0.2,3.2,1.8,3.2h37.4C81.4,71.6,82.4,69.8,81.6,68.4z"/>
</g>
<g>
	<path class="st2" d="M114.4,57.2V69h-3.3V58.3c0-3.5-1.9-5.6-5.2-5.6c-3.1,0-5.6,2.1-5.6,5.6V69H97V50h3.2v2.5
		c1.6-2.1,4-2.9,6.2-2.9C111.1,49.6,114.4,52.7,114.4,57.2z"/>
	<path class="st2" d="M143.1,69h-3.3v-2.5c-1.5,1.8-3.7,2.9-6.7,2.9c-5.3,0-9.5-4.2-9.5-9.9s4.2-9.9,9.5-9.9c3,0,5.2,1.2,6.7,3V50
		h3.3V69z M127,59.5c0,3.8,2.6,6.8,6.5,6.8c3.8,0,6.5-2.9,6.5-6.8c0-3.9-2.7-6.8-6.5-6.8C129.6,52.7,127,55.7,127,59.5z"/>
	<path class="st2" d="M157.3,57.6h2.6L167,50h4.1l-8.5,9l8.6,10h-4.1l-7.2-8.4h-2.6V69H154V40.2h3.3V57.6z"/>
	<path class="st2" d="M196.6,69h-3.3v-2.5c-1.5,1.8-3.7,2.9-6.7,2.9c-5.3,0-9.5-4.2-9.5-9.9s4.2-9.9,9.5-9.9c3,0,5.2,1.2,6.7,3V50
		h3.3V69z M180.4,59.5c0,3.8,2.6,6.8,6.5,6.8c3.8,0,6.5-2.9,6.5-6.8c0-3.9-2.7-6.8-6.5-6.8C183,52.7,180.4,55.7,180.4,59.5z"/>
	<path class="st2" d="M220.3,54.2c-1.2-0.8-3.6-1.8-6.1-1.8c-2.6,0-4.3,1.1-4.3,2.8c0,1.5,1.4,2.2,3.7,2.5l2.2,0.3
		c4,0.5,6.4,2.2,6.4,5.4c0,3.6-3.2,6-8.4,6c-2.3,0-5.5-0.6-8-2.4l1.5-2.4c1.4,1.1,3.3,2,6.5,2c3.1,0,5-1,5-2.9
		c0-1.4-1.2-2.3-3.8-2.6l-2.2-0.3c-4.3-0.5-6.3-2.4-6.3-5.3c0-3.6,3-5.8,7.6-5.8c3,0,5.7,0.8,7.6,2.1L220.3,54.2z"/>
	<path class="st2" d="M248.3,59.5c0,0.4,0,0.9-0.1,1.2h-14.9c0.5,3.9,3.2,5.9,6.5,5.9c2.2,0,4.2-0.9,5.9-2.3l1.7,2.2
		c-2.4,2.2-5,2.9-7.8,2.9c-5.6,0-9.6-4-9.6-9.9c0-5.8,4-9.9,9.4-9.9C244.5,49.6,248.3,53.6,248.3,59.5z M233.3,58H245
		c-0.4-3.4-2.6-5.5-5.7-5.5C235.9,52.5,233.8,54.8,233.3,58z"/>
	<path class="st2" d="M275.2,57.2V69h-3.3V58.3c0-3.5-1.9-5.6-5.2-5.6c-3.1,0-5.6,2.1-5.6,5.6V69h-3.3V50h3.2v2.5
		c1.6-2.1,4-2.9,6.2-2.9C271.9,49.6,275.2,52.7,275.2,57.2z"/>
	<path class="st2" d="M300.6,52.6V40.2h3.3V69h-3.3v-2.5c-1.5,1.8-3.7,2.9-6.7,2.9c-5.3,0-9.5-4.2-9.5-9.9s4.2-9.9,9.5-9.9
		C296.9,49.6,299.1,50.8,300.6,52.6z M287.8,59.5c0,3.8,2.6,6.8,6.5,6.8c3.8,0,6.5-2.9,6.5-6.8c0-3.9-2.7-6.8-6.5-6.8
		C290.4,52.7,287.8,55.7,287.8,59.5z"/>
	<path class="st2" d="M333.5,59.5c0,5.6-4.3,9.9-10.1,9.9c-5.8,0-10-4.3-10-9.9s4.3-9.9,10-9.9C329.2,49.6,333.5,53.9,333.5,59.5z
		 M316.7,59.5c0,4,2.9,6.8,6.7,6.8c3.8,0,6.7-2.9,6.7-6.8s-2.9-6.8-6.7-6.8C319.6,52.7,316.7,55.5,316.7,59.5z"/>
</g>
</svg>
